<svg xmlns="http://www.w3.org/2000/svg" width="20" height="20" viewBox="0 0 20 20">
    <g fill="none" fill-rule="evenodd">
        <g fill="#E5EBF0">
            <g>
                <g>
                    <g>
                        <path d="M168.984 0C171.746 0 174 2.254 174 5.016v9.968c0 2.762-2.254 5.016-5.016 5.016H159c-2.746 0-5-2.254-5-5V5.016C154 2.254 156.254 0 159 0zm-4.975 5.397h-.045l-.104.001c-.566.005-2.722.032-4.241.142-.238.031-.762.047-1.238.571-.365.397-.476 1.286-.476 1.286s-.095 1.063-.095 2.11v.985c0 1.048.095 2.111.095 2.111s.095.89.476 1.286c.476.524 1.111.508 1.38.555.358.034 1.003.062 1.684.084l.411.013c1.097.03 2.16.046 2.16.046h.036c.321-.002 2.703-.024 4.329-.143.238-.031.762-.031 1.238-.555.365-.397.476-1.286.476-1.286s.095-1.063.095-2.11v-.985c0-1.048-.095-2.111-.095-2.111s-.095-.905-.476-1.302c-.476-.508-1.016-.524-1.254-.555-1.505-.11-3.66-.137-4.225-.142h-.104L164 5.396zm-1.295 2.635l3.365 1.841-3.365 1.81V8.032z" transform="translate(-1228 -1681) translate(0 1482) translate(83 199) translate(991)"/>
                    </g>
                </g>
            </g>
        </g>
    </g>
</svg>
