<svg xmlns="http://www.w3.org/2000/svg" width="16" height="19" viewBox="0 0 16 19">
    <g fill="none" fill-rule="evenodd">
        <g fill="#FFF">
            <g>
                <g>
                    <g>
                        <path d="M10 1c1.87 0 3.672.685 5.053 1.92 1.382 1.233 2.243 2.93 2.415 4.753.163 1.723-.3 3.443-1.302 4.86l-.183.247-5.32 6.897c-.156.204-.401.323-.662.323-.223 0-.435-.088-.59-.24l-.072-.083-5.32-6.897C2.89 11.318 2.36 9.497 2.532 7.673c.171-1.824 1.033-3.52 2.414-4.754C6.328 1.685 8.13 1 10 1zm0 1.948c-1.392 0-2.732.509-3.756 1.425-1.016.907-1.647 2.15-1.773 3.483-.117 1.244.213 2.485.93 3.517l.16.218 4.44 5.755 4.44-5.755c.771-1.001 1.16-2.227 1.106-3.469l-.019-.266c-.125-1.334-.756-2.576-1.773-3.484-1.023-.915-2.363-1.424-3.755-1.424zM10 4c1.933 0 3.5 1.567 3.5 3.5S11.933 11 10 11 6.5 9.433 6.5 7.5 8.067 4 10 4zm0 2c-.828 0-1.5.672-1.5 1.5S9.172 9 10 9s1.5-.672 1.5-1.5S10.828 6 10 6z" transform="translate(-420 -962) translate(388 670) translate(20 281) translate(10 10)"/>
                    </g>
                </g>
            </g>
        </g>
    </g>
</svg>
