<svg xmlns="http://www.w3.org/2000/svg" width="20" height="20" viewBox="0 0 20 20">
    <g fill="none" fill-rule="evenodd">
        <g fill="#E5EBF0">
            <g>
                <g>
                    <g>
                        <path d="M98.727 0C101.634 0 104 2.366 104 5.273v9.454c0 2.907-2.366 5.273-5.273 5.273h-9.454C86.366 20 84 17.634 84 14.727V5.273C84 2.366 86.366 0 89.273 0zm-1.758 3.516H91.03c-1.938 0-3.515 1.577-3.515 3.515v5.938c0 1.938 1.577 3.515 3.515 3.515h5.938c1.938 0 3.515-1.577 3.515-3.515V7.03c0-1.938-1.577-3.515-3.515-3.515zm0 1.171c1.292 0 2.344 1.052 2.344 2.344v5.938c0 1.292-1.052 2.344-2.344 2.344H91.03c-1.292 0-2.344-1.052-2.344-2.344V7.03c0-1.292 1.052-2.343 2.344-2.343zM94 7.07c-1.615 0-2.93 1.315-2.93 2.93 0 1.615 1.315 2.93 2.93 2.93 1.615 0 2.93-1.315 2.93-2.93 0-1.615-1.315-2.93-2.93-2.93zm0 1.172c.97 0 1.758.787 1.758 1.758 0 .97-.787 1.758-1.758 1.758-.97 0-1.758-.787-1.758-1.758 0-.97.787-1.758 1.758-1.758zm3.36-2.187c-.324 0-.587.262-.587.586 0 .323.263.586.586.586.324 0 .586-.263.586-.586 0-.324-.262-.586-.586-.586z" transform="translate(-1158 -1681) translate(0 1482) translate(83 199) translate(991)"/>
                    </g>
                </g>
            </g>
        </g>
    </g>
</svg>
