<svg xmlns="http://www.w3.org/2000/svg" width="20" height="20" viewBox="0 0 20 20">
    <g fill="none" fill-rule="evenodd">
        <g fill="#FFC522">
            <g>
                <g>
                    <g>
                        <g>
                            <path d="M4.813.104c.937 0 1.791.417 2.375 1.146l1.958 2.48c1.022 1.27.834 3.103-.395 4.166-.146.146-.291.25-.396.354.188.333.625.938 1.542 1.854.916.916 1.52 1.333 1.854 1.541.104-.104.228-.228.354-.395.562-.688 1.416-1.063 2.291-1.063.688 0 1.354.23 1.875.646l2.48 1.958c1.062.855 1.436 2.334.895 3.583-.355.813-.937 1.709-1.48 2.25-.833.834-2.02 1.272-3.416 1.272-2.916 0-6.625-1.896-9.687-4.959C.354 10.23-1.271 4.48 1.354 1.833 1.896 1.292 2.792.708 3.604.354c.397-.167.792-.25 1.209-.25zm0 1.792c-.166 0-.312.041-.478.104-.668.292-1.376.792-1.688 1.104-1.792 1.792-.25 6.605 3.687 10.543 2.833 2.833 6.125 4.437 8.416 4.437.875 0 1.625-.25 2.125-.75.313-.313.813-1.021 1.104-1.688.23-.5.083-1.084-.374-1.438l-2.479-1.958c-.23-.188-.479-.271-.75-.271-.333 0-.666.146-.916.417-.438.5-.75.854-.834.937-.166.167-.375.25-.625.25-.854 0-2.104-.938-3.396-2.23-1.645-1.666-2.73-3.27-1.979-4.02.083-.083.417-.396.938-.833.5-.417.562-1.146.167-1.667L5.772 2.354c-.251-.291-.605-.458-.96-.458zm12.541-.562c.146-.146.375-.146.521 0l.77.77c.146.146.146.376 0 .521l-1.749 1.75 1.77 1.75c.145.145.145.375 0 .52l-.771.771c-.146.146-.376.146-.521 0l-1.75-1.75-1.75 1.75c-.145.146-.375.146-.52 0l-.771-.77c-.125-.146-.125-.375 0-.501l1.75-1.75-1.75-1.75c-.145-.145-.145-.375 0-.52l.771-.77c.146-.147.376-.147.521 0l1.75 1.749z" transform="translate(-83 -1692) translate(0 1482) translate(83 199) translate(0 8) translate(0 3)"/>
                        </g>
                    </g>
                </g>
            </g>
        </g>
    </g>
</svg>
