<svg xmlns="http://www.w3.org/2000/svg" width="20" height="20" viewBox="0 0 20 20">
    <g fill="none" fill-rule="evenodd">
        <g fill="#173A47">
            <g>
                <g>
                    <path d="M12.632 0C16.7 0 20 3.265 20 7.292c0 4.027-3.299 7.291-7.368 7.291-1.601 0-3.083-.505-4.292-1.363l-6.543 6.475c-.411.407-1.078.407-1.489 0-.393-.39-.41-1.01-.051-1.419l.051-.054 6.514-6.445c-.977-1.237-1.559-2.794-1.559-4.485C5.263 3.265 8.563 0 12.632 0zm0 2.083c-2.907 0-5.264 2.332-5.264 5.209 0 2.876 2.357 5.208 5.264 5.208 2.906 0 5.263-2.332 5.263-5.208 0-2.877-2.357-5.209-5.263-5.209z" transform="translate(-395 -216) translate(383 203) translate(12 13)"/>
                </g>
            </g>
        </g>
    </g>
</svg>
