<svg xmlns="http://www.w3.org/2000/svg" width="20" height="20" viewBox="0 0 20 20">
    <g fill="none" fill-rule="evenodd">
        <g fill="#E5EBF0">
            <g>
                <g>
                    <g>
                        <path d="M136.07 0h-14.14C120.314 0 119 1.314 119 2.93v14.14c0 1.616 1.314 2.93 2.93 2.93h5.898v-7.07h-2.344V9.414h2.344V7.031c0-1.938 1.577-3.515 3.516-3.515h3.554V7.03h-3.554v2.383h3.554l-.585 3.516h-2.97V20h4.727c1.616 0 2.93-1.314 2.93-2.93V2.93c0-1.616-1.314-2.93-2.93-2.93z" transform="translate(-1193 -1681) translate(0 1482) translate(83 199) translate(991)"/>
                    </g>
                </g>
            </g>
        </g>
    </g>
</svg>
