<svg xmlns="http://www.w3.org/2000/svg" width="20" height="20" viewBox="0 0 20 20">
    <g fill="none" fill-rule="evenodd">
        <g fill="#FFF">
            <g>
                <g>
                    <g>
                        <path d="M9.903 9.903h2.201c.607 0 1.1.488 1.1 1.1 0 .608-.488 1.101-1.1 1.101h-3.3c-.303 0-.577-.12-.776-.318-.202-.203-.325-.476-.325-.772V6.593c0-.602.489-1.09 1.1-1.09.608 0 1.1.496 1.1 1.09v3.31zM12.466.34c5.282 1.415 8.417 6.844 7 12.126-1.415 5.282-6.843 8.417-12.125 7C2.059 18.052-1.075 12.624.34 7.342S7.184-1.075 12.466.34zm-.57 2.125c-4.107-1.1-8.33 1.338-9.43 5.445-1.102 4.108 1.337 8.33 5.444 9.432 4.108 1.1 8.33-1.337 9.432-5.445 1.1-4.108-1.337-8.331-5.445-9.432z" transform="translate(-1028 -510) translate(998 269) translate(20 231) translate(10 10)"/>
                    </g>
                </g>
            </g>
        </g>
    </g>
</svg>
