<svg xmlns="http://www.w3.org/2000/svg" width="20" height="17" viewBox="0 0 20 17">
    <g fill="none" fill-rule="evenodd">
        <g fill="#FFF">
            <g>
                <g>
                    <g>
                        <path d="M3.643 5.218c-.005-.902.016-1.803.016-2.703.004-.083.011-.164.034-.245.073-.26.263-.479.511-.586.097-.042.196-.063.3-.074 3.662-.124 7.33-.124 10.993 0 .103.011.202.032.299.074.228.099.409.292.492.527.028.079.042.159.051.242.03.897.017 1.796.008 2.694.93.02 1.86.048 2.79.089.08.01.155.023.23.05.25.092.451.292.542.542.015.045.027.089.036.133.01.058.016.117.018.177v10.87c-.004.106-.017.208-.054.309-.09.25-.291.45-.542.542-.1.036-.202.05-.309.054H.942c-.107-.004-.208-.018-.31-.054-.25-.092-.45-.291-.541-.542-.037-.101-.05-.203-.055-.31V6.137c.004-.081.012-.158.032-.236.006-.025.014-.049.023-.073.09-.25.291-.45.542-.541.1-.037.202-.05.309-.055.9 0 1.8-.006 2.701-.014zm14.51 5.648l-5.463 1.093-.003.027c-.04.264-.122.523-.239.765-.14.295-.337.562-.573.788-.237.227-.515.41-.817.537-.335.141-.695.214-1.058.214-.363 0-.724-.073-1.058-.214-.302-.128-.58-.31-.817-.537-.236-.226-.432-.493-.573-.788-.117-.242-.198-.501-.239-.765 0-.01-.002-.019-.003-.027l-5.462-1.093v5.236h16.304v-5.236zm-8.177-.2c-.136.006-.266.037-.387.1-.236.12-.413.343-.471.602-.025.105-.03.214-.016.32.012.089.036.175.072.257.046.1.109.19.186.267.078.078.168.141.268.186.11.05.228.077.348.08.12.003.242-.018.355-.063.102-.04.196-.099.278-.172.08-.074.149-.161.198-.259.04-.079.069-.163.085-.25.02-.114.018-.231-.005-.344-.05-.253-.214-.475-.437-.604-.116-.066-.246-.105-.38-.116-.03-.002-.061-.003-.094-.003zM4.57 7.044H1.848v1.975l5.818 1.164c.26-.436.644-.797 1.097-1.03.258-.13.537-.222.825-.266.113-.018.227-.025.343-.03h.139c.115.005.23.012.343.03.288.044.566.135.825.267.453.232.836.593 1.097 1.03l5.818-1.165V7.043h-2.719c-3.618.121-7.241 0-10.863 0zm9.959-1.92V3.42H5.472v1.776c3.02-.041 6.039-.097 9.057-.073z" transform="translate(-723 -1263) translate(693 1071) translate(20 181) translate(10 10)"/>
                    </g>
                </g>
            </g>
        </g>
    </g>
</svg>
